<?xml version="1.0" encoding="utf-8"?>
<!-- Generator: Adobe Illustrator 17.1.0, SVG Export Plug-In . SVG Version: 6.00 Build 0)  -->
<!DOCTYPE svg PUBLIC "-//W3C//DTD SVG 1.1//EN" "http://www.w3.org/Graphics/SVG/1.1/DTD/svg11.dtd">
<svg version="1.1" id="Artwork" xmlns="http://www.w3.org/2000/svg" xmlns:xlink="http://www.w3.org/1999/xlink" x="0px" y="0px"
	 viewBox="110.8 27.4 78.5 115.4" enable-background="new 110.8 27.4 78.5 115.4" xml:space="preserve">
<g>
	<path fill="#006AC6" d="M123.4,123.5v2.4h-8.7v-13.7h2.7v11.3H123.4z M129,115.7c-1.8,0-3.2,0.7-4.4,2.1l-0.1,0.2l1.6,1.5l0.2-0.2
		c1-1,1.7-1.5,2.8-1.5c1.1,0,1.7,0.5,1.7,1.3v0.1l-1.9,0.3c-2.2,0.4-4.4,1.1-4.4,3.5c0,1.8,1.3,2.9,3.6,2.9c1.2,0,2.2-0.3,2.8-0.9
		v0.6h2.3v-6.6C133.1,117.1,131.5,115.7,129,115.7 M130.7,121.4v0.5c0,1.5-1.3,2.1-2.4,2.1c-0.4,0-1.4-0.1-1.4-0.9
		c0-0.8,0.8-1.1,2.5-1.5L130.7,121.4z M140.7,123.6l-0.3,0.1c-0.6,0.2-0.9,0.2-1.2,0.2c-0.6,0-0.7-0.2-0.7-0.7v-5h2.4v-2h-2.4v-3
		H136v3h-1.7v2h1.7v5.2c0,1.9,0.9,2.8,2.8,2.8c0.7,0,1.4-0.1,2.1-0.4l0.2-0.1L140.7,123.6z M152.9,123.6c-0.6,0.2-0.9,0.2-1.2,0.2
		c-0.6,0-0.8-0.2-0.8-0.7v-5h2.4v-2H151v-3h-2.5v3h-1.7v2h1.7v5.2c0,1.9,0.9,2.8,2.8,2.8c0.7,0,1.4-0.1,2.1-0.4l0.2-0.1l-0.3-2.1
		L152.9,123.6z M161,122c0,1.2-0.7,1.9-1.9,1.9c-1,0-1.5-0.5-1.5-1.5V116H155v6.9c0,2.1,1.3,3.2,3.6,3.2c1,0,1.9-0.3,2.5-0.9v0.6
		h2.4V116H161V122z M183.9,122.4l-0.2,0.1c-1.1,1-1.7,1.3-2.8,1.3c-1.8,0-2.4-1.3-2.5-2.3h6.8l0-0.2c0-0.2,0-0.6,0-0.9
		c0-3-1.7-4.9-4.6-4.9c-2.9,0-4.9,2.1-4.9,5.3c0,3.1,2,5.1,5,5.1c1.7,0,3-0.6,4.3-2l0.2-0.2L183.9,122.4z M178.5,119.7
		c0.2-0.9,0.8-1.8,2.2-1.8c1.2,0,1.9,0.7,2.1,1.8H178.5z M142.7,116h2.5v9.8h-2.5V116z M145.4,113.5c0,0.8-0.6,1.4-1.4,1.4
		c-0.8,0-1.4-0.6-1.4-1.4c0-0.8,0.6-1.4,1.4-1.4C144.8,112,145.4,112.7,145.4,113.5z M172,116.7c-0.7-0.6-1.6-0.9-2.7-0.9
		c-2.6,0-4.4,2.1-4.4,5.2c0,3.1,1.8,5.2,4.4,5.2c1.2,0,2.1-0.4,2.8-1.1v0.8h2.4v-13.7H172L172,116.7L172,116.7z M172.1,121
		c0,1.8-0.9,2.9-2.4,2.9c-1.3,0-2.2-1.1-2.2-2.9c0-1.8,0.9-2.9,2.2-2.9C171.1,118.1,172.1,119.2,172.1,121"/>
	<path fill="#006AC6" d="M140.3,45.5c-3.4,0-6.2-2.8-6.2-6.2s2.8-6.2,6.2-6.2c3.4,0,6.2,2.8,6.2,6.2
		C146.5,42.8,143.7,45.5,140.3,45.5z M165.8,39.4c0-3.4-2.8-6.2-6.2-6.2s-6.2,2.8-6.2,6.2s2.8,6.2,6.2,6.2
		C163.1,45.5,165.8,42.8,165.8,39.4z M179.1,72c-3.4,0-6.2,2.8-6.2,6.2c0,3.4,2.8,6.2,6.2,6.2c3.4,0,6.2-2.8,6.2-6.2
		C185.2,74.7,182.5,72,179.1,72z M179.1,33.2c-3.4,0-6.2,2.8-6.2,6.2c0,3.4,2.8,6.2,6.2,6.2c3.4,0,6.2-2.8,6.2-6.2
		C185.2,35.9,182.5,33.2,179.1,33.2z M179.1,52.6c-3.4,0-6.2,2.8-6.2,6.2s2.8,6.2,6.2,6.2c3.4,0,6.2-2.8,6.2-6.2
		C185.2,55.3,182.5,52.6,179.1,52.6z M127.1,91.4V33.2h-12.3v70.5h70.5V91.4H127.1z"/>
	<path fill="#006AC6" d="M142.1,130.7c0,0.3-0.3,0.6-0.6,0.6c-0.3,0-0.6-0.3-0.6-0.6s0.3-0.6,0.6-0.6
		C141.8,130.1,142.1,130.4,142.1,130.7z M114.7,136.8h1.1V134h2.4v-0.9h-2.4v-2h3v-0.9h-4.1V136.8z M141,136.8h1v-4.8h-1V136.8z
		 M130.5,133.6v3.2h-0.9v-0.5c-0.3,0.4-0.8,0.7-1.6,0.7c-0.9,0-1.7-0.4-1.7-1.3c0-1.1,1-1.4,2.1-1.7l1.1-0.2v-0.1
		c0-0.5-0.4-0.8-1-0.8c-0.6,0-1,0.3-1.5,0.8l-0.6-0.6c0.6-0.7,1.3-1,2.1-1C129.8,131.9,130.5,132.6,130.5,133.6z M129.5,134.5
		l-0.8,0.2c-0.8,0.2-1.4,0.3-1.4,0.9c0,0.3,0.3,0.6,0.8,0.6c0.7,0,1.4-0.4,1.4-1.2V134.5z M119.6,136.8h1v-4.8h-1V136.8z
		 M133.8,131.9c-0.6,0-1.1,0.3-1.5,0.7v-0.6h-1v4.8h1v-2.9c0-0.6,0.4-1.1,1.1-1.1c0.6,0,1,0.4,1,1.1v2.9h1v-3.3
		C135.5,132.7,134.9,131.9,133.8,131.9z M123.9,131.9c-0.6,0-1.1,0.3-1.5,0.7v-0.6h-1v4.8h1v-2.9c0-0.6,0.4-1.1,1.1-1.1s1,0.4,1,1.1
		v2.9h1v-3.3C125.6,132.7,125,131.9,123.9,131.9z M120.1,130.1c-0.3,0-0.6,0.3-0.6,0.6s0.3,0.6,0.6,0.6s0.6-0.3,0.6-0.6
		S120.4,130.1,120.1,130.1z M138.5,136.1c-0.9,0-1.3-0.7-1.3-1.6s0.4-1.6,1.3-1.6c0.4,0,0.8,0.1,1.3,0.7l0.7-0.6
		c-0.6-0.7-1.2-0.9-1.9-0.9c-1.4,0-2.4,1-2.4,2.5c0,1.5,0.9,2.5,2.4,2.5c0.8,0,1.4-0.2,2-1.1l-0.7-0.6
		C139.3,135.9,139,136.1,138.5,136.1z M170.8,130.1c-0.3,0-0.6,0.3-0.6,0.6s0.3,0.6,0.6,0.6c0.3,0,0.6-0.3,0.6-0.6
		S171.1,130.1,170.8,130.1z M170.2,136.8h1v-4.8h-1V136.8z M174.3,136.1c-0.9,0-1.3-0.7-1.3-1.6s0.4-1.6,1.3-1.6
		c0.4,0,0.8,0.1,1.3,0.7l0.7-0.6c-0.6-0.7-1.2-0.9-1.9-0.9c-1.4,0-2.4,1-2.4,2.5c0,1.5,0.9,2.5,2.4,2.5c0.8,0,1.4-0.2,2-1.1
		l-0.7-0.6C175.1,135.9,174.8,136.1,174.3,136.1z M180.8,136.1c-0.7,0.7-1.3,0.9-2,0.9c-1.5,0-2.4-1-2.4-2.5c0-1.5,0.9-2.6,2.3-2.6
		c1.4,0,2.2,0.9,2.2,2.3c0,0.1,0,0.3,0,0.4h-3.5c0.1,0.8,0.5,1.4,1.4,1.4c0.5,0,0.9-0.2,1.4-0.6L180.8,136.1z M177.4,133.9h2.4
		c0-0.7-0.4-1.2-1.2-1.2C178,132.8,177.6,133.2,177.4,133.9z M183.6,134c-0.8-0.2-1.2-0.2-1.2-0.6c0-0.3,0.3-0.6,0.9-0.6
		c0.5,0,0.9,0.1,1.4,0.6l0.6-0.7c-0.7-0.5-1.2-0.7-2-0.7c-1.2,0-1.9,0.6-1.9,1.4c0,0.8,0.4,1.1,1.7,1.4c0.7,0.1,1.2,0.2,1.2,0.7
		c0,0.4-0.4,0.6-0.9,0.6s-0.9-0.1-1.6-0.7l-0.6,0.7c0.7,0.6,1.3,0.8,2.2,0.8c1.2,0,2-0.6,2-1.5C185.4,134.6,184.8,134.2,183.6,134z
		 M168.3,133.7c-0.3,0.9-0.5,1.6-0.7,2.2c-0.2-0.6-0.4-1.4-0.7-2.2l-0.5-1.6h-1.1l1.6,4.8h1.3l1.6-4.8h-1.1L168.3,133.7z
		 M154.3,132.9c-1.2-0.3-1.7-0.4-1.7-1c0-0.5,0.5-0.9,1.4-0.9c0.7,0,1.2,0.2,2,0.8l0.6-0.8c-0.8-0.7-1.5-1-2.6-1
		c-1.4,0-2.5,0.8-2.5,1.9c0,1,0.5,1.5,2.3,1.9c1.1,0.2,1.8,0.4,1.8,1.1c0,0.7-0.6,1.1-1.4,1.1c-0.8,0-1.3-0.2-2.3-1l-0.7,0.8
		c1,0.9,1.8,1.2,2.9,1.2c1.6,0,2.6-0.9,2.6-2.1C156.7,133.7,156,133.3,154.3,132.9z M147.8,136.8h1v-6.7h-1V136.8z M161,135.4
		l0.6,0.6c-0.7,0.7-1.3,0.9-2.1,0.9c-1.5,0-2.4-1-2.4-2.5c0-1.5,0.9-2.6,2.3-2.6c1.4,0,2.2,0.9,2.2,2.3c0,0.1,0,0.3,0,0.4h-3.5
		c0.1,0.8,0.5,1.4,1.4,1.4C160.1,136.1,160.4,135.9,161,135.4z M158.2,133.9h2.4c0-0.7-0.4-1.2-1.2-1.2
		C158.7,132.8,158.3,133.2,158.2,133.9z M163.3,132.8v-0.7h-1v4.8h1v-2.4c0-0.9,0.4-1.4,1.1-1.4c0.2,0,0.3,0,0.6,0.1l0.2-0.9
		c-0.2-0.1-0.5-0.1-0.7-0.1C163.9,132,163.5,132.3,163.3,132.8z M146.9,133.6v3.2H146v-0.5c-0.3,0.4-0.8,0.7-1.6,0.7
		c-0.9,0-1.7-0.4-1.7-1.3c0-1.1,1-1.4,2.1-1.7l1.1-0.2v-0.1c0-0.5-0.4-0.8-1-0.8c-0.6,0-1,0.3-1.5,0.8l-0.6-0.6c0.6-0.7,1.3-1,2.1-1
		C146.2,131.9,146.9,132.6,146.9,133.6z M145.9,134.5l-0.8,0.2c-0.8,0.2-1.4,0.3-1.4,0.9c0,0.3,0.3,0.6,0.8,0.6
		c0.7,0,1.4-0.4,1.4-1.2V134.5z"/>
</g>
</svg>
